<svg width="320" height="240" xmlns="http://www.w3.org/2000/svg" xmlns:svg="http://www.w3.org/2000/svg">
 <!-- Created with SVG-edit - http://svg-edit.googlecode.com/ -->
 <title>logoUAV</title>
 <g>
  <title>Layer 1</title>
  <path d="m78.666664,32.666664c0,1 0.063728,1.917603 -0.004501,2.70533c-0.084129,0.971287 -0.738876,1.50322 -1.16217,2.29467c-0.400459,0.748779 -0.822906,1.499817 -0.833328,2.400005c-0.010406,0.899937 0.15934,1.897888 -0.352661,2.547337c-0.48455,0.614601 -0.468643,1.511623 -0.868668,2.274155c-0.354073,0.674934 -0.778,1.493172 -0.778671,2.389175c-0.000648,0.8685 -0.464645,1.56678 -0.833328,2.389328c-0.365875,0.816269 0.173904,1.834106 -0.333344,2.666672c-0.433578,0.711639 -0.833328,1.333328 -0.833328,2.212158c0,0.8265 0,1.787842 0,2.642021c0,0.889816 0,1.800491 0,2.653816c0,0.940002 0,1.825333 0,2.625336c0,0.899994 0,1.835999 0,2.683998c0,0.863342 0,1.758842 0,2.717331c0,0.96534 0,1.77784 0,2.688835c0,0.814331 0,1.709831 0,2.609833c0,0.889343 0,1.85717 0,2.698669c0,0.911163 0,1.801331 0,2.695999c0,0.815163 0,1.622658 0,2.584488c0,0.920845 0,1.820847 0,2.72084c0,0.900002 0,1.800003 0,2.600006c0,0.899994 -0.005402,1.800018 0,2.699997c0.005325,0.889381 0.63131,1.485786 1.02533,2.110657c0.471985,0.74852 0.782028,1.606087 0.974838,2.489174c0.184052,0.843002 1.33699,0.630417 1.91449,1.184166c0.562271,0.539139 1.249123,0.402954 2.085342,0.736832c0.765625,0.305695 1.478981,0.96875 2.35717,0.979172c0.841431,0.009979 1.809486,0 2.64283,0c0.917343,0 1.70533,0 2.666656,0c0.854187,0 1.8125,0 2.690514,0c0.841499,0 1.876503,0.200714 2.64283,-0.166672c0.755768,-0.362335 1.089478,-1.225128 1.647331,-1.886002c0.495117,-0.586548 0.809059,-1.47348 1.299995,-2.242828c0.450081,-0.70533 1.521255,-0.949875 1.886002,-1.704498c0.355515,-0.735497 0.130539,-1.761902 0.6875,-2.5c0.502243,-0.665581 1.286674,-1.152893 1.468498,-2.099998c0.169701,-0.883919 -0.124634,-1.866173 0.296005,-2.599998c0.393555,-0.686562 1.387955,-1.215935 1.657501,-2.1045c0.250824,-0.826851 0.057167,-1.67466 0.057167,-2.695503c0,-0.861328 -0.008652,-1.833382 0,-2.589333c0.010422,-0.910835 0.535278,-1.616989 0.878502,-2.510834c0.284737,-0.741516 -0.036163,-1.727806 0.121666,-2.657166c0.14402,-0.848038 0.719315,-1.388245 0.942665,-2.485512c0.171349,-0.841797 0.057167,-1.757156 0.057167,-2.557159c0,-0.899994 0,-1.799995 0,-2.679153c0,-0.956841 0,-1.816345 0,-2.69017c0,-0.830673 -0.187943,-1.851891 0.085327,-2.632004c0.299583,-0.855202 0.914673,-1.55584 0.914673,-2.397339c0,-0.967979 -0.308861,-1.855453 0.001328,-2.717331c0.265465,-0.737579 0.97007,-1.378181 0.998672,-2.305496c0.027077,-0.878075 0,-1.778503 0,-2.578506c0,-1.033325 0,-1.810654 0,-2.764l0,-0.87199l0,-0.859509" stroke-width="18" stroke="#abf747" fill="none" id="svg_1"/>
  <path d="m118,136.666672c0,-1.699997 0,-2.600006 0,-3.520828c0,-0.964508 0,-1.689835 0,-2.679001c0,-0.779343 -0.04866,-1.780121 0,-2.598839c0.057266,-0.963608 0.551598,-1.698914 1.14933,-2.340012c0.662247,-0.710297 0.846809,-1.566681 0.85067,-2.293335c0.005333,-1.004044 0.280518,-1.971405 1,-2.401321c0.770462,-0.460373 0.974632,-1.167068 1,-1.966675c0.028603,-0.901352 0.581619,-1.591568 1.295502,-2.151825c0.687172,-0.539291 0.680321,-1.343109 0.704498,-2.3815c0.019852,-0.852539 0.336708,-1.751526 0.647331,-2.362167c0.459572,-0.903458 0.611412,-1.798943 0.927338,-2.443161c0.47229,-0.963074 1.090439,-1.42189 1.720833,-2.161346c0.642197,-0.753304 0.26593,-1.679115 0.871155,-2.53334c0.468826,-0.66169 1.165421,-1.191887 1.549347,-1.881325c0.415848,-0.74675 0.046448,-1.778275 0.505493,-2.506668c0.406372,-0.644806 1.49324,-0.76725 2.38916,-0.778664c0.868683,-0.011063 1.314804,-0.81752 2,-1c0.839264,-0.223503 1.75737,-0.142372 2.684845,0c0.72995,0.112038 0.457565,1.23423 0.988495,1.916c0.487946,0.626579 1.345886,1.002716 1.711502,1.731331c0.370819,0.738998 0.588303,1.527618 1.300003,2.247337c0.562683,0.569008 0.764893,1.39447 1.279175,2.119995c0.485321,0.6847 0.98703,1.34005 1.303986,2.306839c0.221115,0.674454 0.234314,1.698914 0.557343,2.467834c0.314545,0.748749 1.125092,1.485886 1.442505,2.310501c0.321594,0.835556 0.441925,1.631332 0.922821,2.417496c0.459991,0.751999 1.01973,1.344757 1.162659,2.307999c0.148056,0.997711 0.039352,1.901382 0.472015,2.585327c0.504257,0.797104 1.066879,1.371948 1.397324,2.422668c0.242172,0.77005 0.164505,1.650665 0.166672,2.514008c0.002258,0.895508 0.307281,1.704514 0.647339,2.409843c0.410156,0.850693 0.375366,1.786163 0.778,2.606827c0.426682,0.869644 0.574661,1.736008 0.574661,2.636002c0,0.800003 -0.098663,1.708481 0.020828,2.520828c0.145309,0.987839 0.674164,1.618668 0.893845,2.593842c0.195465,0.867691 0.20961,1.662766 0.659988,2.485336c0.427292,0.78038 0.425339,1.699997 0.425339,2.598663c0,0.88533 0,1.801331 0,2.680161c0,0.826508 0,1.787842 0,2.641998c0,0.879166 0,1.779175 0,2.677841c0,0.88533 -0.03035,1.801849 0,2.679993c0.028595,0.827316 0.519714,1.58194 1.166672,2.28801c0.567062,0.618866 0.83107,1.476151 0.833328,2.354156c0.002228,0.8685 0,1.836334 0,2.677841l0,0.88533" stroke-width="18" stroke="#1ea8ed" fill="none" id="svg_2"/>
  <path d="m121,124.666664c2.450996,0 3.902,0 5.228996,0c1.315002,0 2.69001,-0.082001 4.053993,0c1.387009,0.084 2.424011,0.662994 3.62001,0.979004c1.216995,0.321991 2.423996,0.62999 3.709,1.022003c1.080994,0.330994 2.212006,0.747986 3.425003,1.166c1.130997,0.389 2.245987,0.831001 3.582001,0.833c1.457993,0.001999 2.231995,0.365997 3.011993,1c0.814011,0.662003 1.906998,1.031006 2.37001,1.703995c0.563995,0.824005 1.883987,1.238998 3.084,1.381012l0.944,0.561996l1.307999,0.377991l0.661987,0.69101" stroke-width="18" stroke="#1ea8ed" fill="none" id="svg_3"/>
  <path d="m179,150.666672c0,1 0,1.800003 0,2.699997c0,0.936005 -0.063904,1.785202 0,2.590164c0.083603,1.053085 0.604752,1.695633 0.878494,2.688339c0.19313,0.700333 0.121506,1.657501 0.121506,2.506836c0,0.919159 -0.000061,1.914658 0,2.714661c0.000092,1 -0.056534,1.814377 0.166672,2.800003c0.138748,0.612656 0.565598,1.381073 0.748001,2.399994c0.141586,0.790909 0.037964,1.802643 0.106155,2.600006c0.086121,1.006897 0.454819,1.783478 0.695175,2.600006c0.288315,0.979462 0.156784,1.752472 0.288498,2.642822c0.146103,0.987686 0.725723,1.490845 0.942825,2.414337c0.172714,0.734695 0.344315,1.738647 0.627335,2.506836c0.349472,0.948563 0.424667,1.720001 0.425339,2.661331c0.000717,1.007996 0.033218,1.883194 0.425339,2.574661c0.462936,0.81636 0.875504,1.650833 1.222,2.300003c0.453354,0.84938 0.352005,1.800003 0.352661,2.689331c0.000671,0.894669 0.528061,1.503204 0.989334,2.185333c0.483276,0.714676 0.949753,1.518677 1.010666,2.372665c0.063034,0.883759 -0.029602,1.716705 0.425339,2.488678c0.460068,0.78067 0.481308,1.621277 0.574661,2.563995c0.08374,0.845703 0.939102,1.215225 1,2.099838c0.063553,0.923309 -0.471207,1.832428 0,2.614822c0.377838,0.627365 0.59729,1.223145 1.085327,2c0.46492,0.740051 -0.018356,2.124069 0.914673,2.223679c0.785004,0.083817 0.957199,-1.220703 1,-2.138336c0.041931,-0.899033 0.217804,-1.76825 0.574661,-2.400009c0.475983,-0.842621 0.425339,-1.757156 0.425339,-2.598663c0,-0.968002 -0.037201,-1.8022 0,-2.601334c0.042709,-0.917633 0.939102,-1.415222 1,-2.300003c0.061798,-0.897873 0,-1.699997 0,-2.599991c0,-0.900009 -0.052902,-1.834747 0.352661,-2.600006c0.448303,-0.845886 0.647339,-1.699997 0.647339,-2.5c0,-0.842834 -0.164001,-1.829834 0.020828,-2.699997c0.179092,-0.843124 0.961166,-1.474091 0.979172,-2.301331c0.019867,-0.913116 -0.163132,-1.828323 0.020828,-2.698669c0.179108,-0.847366 0.917023,-1.592377 0.977844,-2.300003c0.077087,-0.896683 -0.029358,-1.860077 0.426666,-2.636002c0.459137,-0.781219 0.706818,-1.513626 1.149323,-2.174667c0.532944,-0.796173 0.170731,-1.782959 0.42984,-2.68483c0.220627,-0.767914 0.887222,-1.284439 1.34816,-2c0.52449,-0.814194 0.628998,-1.506012 0.647339,-2.419159c0.018005,-0.896561 0.432892,-1.667587 1.084,-2.369339c0.570023,-0.614365 0.908386,-1.479965 0.916,-2.352005c0.007507,-0.859482 0.628006,-1.431625 1.010666,-2c0.452469,-0.672043 0.946609,-1.476547 0.989334,-2.268494c0.050552,-0.936981 -0.104889,-1.883286 0.352661,-2.591003c0.519455,-0.803452 1.394363,-1.251541 1.611343,-2.104492c0.222061,-0.872925 -0.328186,-1.97702 0.202667,-2.600006c0.519241,-0.60936 0.594101,-1.371094 1.185989,-1.942841c0.506897,-0.489655 0.647339,-1.156998 0.683334,-2.082489l0.538666,-0.585342l0.425339,-0.8685" stroke-width="18" stroke-linejoin="null" stroke-linecap="null" stroke-dasharray="null" stroke="#ff7f00" fill="none" id="svg_4"/>
 </g>
</svg>